<svg width="298" height="136" viewBox="0 0 298 136" fill="none" xmlns="http://www.w3.org/2000/svg">
<path fill-rule="evenodd" clip-rule="evenodd" d="M273.973 77.8367C276.012 77.4526 282.152 77.7599 284.288 78.349C291.666 80.4491 295.816 85.1358 297.418 93.1265C297.976 95.9694 298 96.3793 298 107.392C298 117.867 297.951 118.866 297.515 120.761C296.665 124.321 295.403 126.882 293.292 129.264C288.802 134.335 284.531 136 275.915 136C269.289 136 265.649 135.104 262.154 132.619C260.965 131.774 260.892 131.39 261.62 129.648C261.912 128.983 262.227 128.214 262.324 127.932C263.004 126.114 263.805 124.475 263.999 124.475C264.145 124.475 264.994 124.859 265.892 125.346C268.998 126.959 269.556 127.164 273.003 127.932C277.929 129.059 283.341 127.42 286.496 123.835C288.414 121.658 289.336 119.25 289.846 115.127L289.991 114.077L288.535 115.536C287.03 117.073 284.797 118.379 282.783 118.892C281.472 119.225 275.357 119.301 273.852 119.02C271.522 118.559 270.309 118.226 270.187 118.021C270.115 117.918 269.896 117.816 269.726 117.816C269.192 117.816 266.741 116.561 265.066 115.46C262.785 113.949 259.97 110.619 258.756 108.058C258.198 106.88 257.64 105.42 257.495 104.805C257.349 104.216 257.106 103.269 256.961 102.68C256.645 101.374 256.645 95.6878 256.985 95.0219C257.106 94.7657 257.228 94.3047 257.228 93.9974C257.228 93.1778 258.66 89.3874 259.436 88.1581C259.824 87.5435 260.14 86.9545 260.14 86.8007C260.14 86.6727 261.208 85.4432 262.518 84.0602C264.435 82.037 265.285 81.3453 267.057 80.3721C269.192 79.2196 271.765 78.2721 273.973 77.8367ZM283.972 86.7237C282.225 85.8017 279.118 85.2384 276.886 85.4689C273.634 85.7762 271.668 86.6982 269.508 88.9519C267.566 90.9752 266.353 93.5108 265.843 96.5585C265.528 98.4794 265.528 99.0173 265.819 100.836C266.596 105.446 268.683 108.468 272.42 110.363C274.58 111.439 276.061 111.797 278.463 111.797C282.152 111.772 284.798 110.773 286.861 108.596C289.409 105.907 290.21 101.988 289.409 96.0463C288.754 91.1801 287.127 88.3884 283.972 86.7237Z" fill="#7AC943"/>
<path fill-rule="evenodd" clip-rule="evenodd" d="M183.861 61.4197C184.177 61.3685 187.866 61.3685 191.166 61.471C191.385 61.471 191.458 65.6712 191.458 81.6014C191.458 92.9216 191.361 102.168 191.239 102.68C191.118 103.192 190.875 104.242 190.705 105.01C190.56 105.779 190.341 106.598 190.22 106.803C190.123 107.008 189.759 107.879 189.395 108.698C187.502 113.155 182.478 117.611 177.867 118.917C173.256 120.198 169.081 120.198 163.791 118.866C159.131 117.688 153.889 113.231 151.486 108.34C150.054 105.471 149.059 100.707 149.326 98.0439C149.787 93.1266 150.637 90.5142 152.918 86.9543C155.66 82.7284 159.301 79.9625 164.276 78.349C165.878 77.8367 166.606 77.7597 170.101 77.7597C173.304 77.7597 174.396 77.8624 175.561 78.2209C177.77 78.938 180.003 80.2441 181.75 81.832L183.327 83.2661L183.4 72.3813C183.449 62.4698 183.497 61.4965 183.861 61.4197ZM170.465 85.6737C170.076 85.6225 169.033 85.725 168.159 85.9043C167.261 86.0836 165.781 86.6214 164.859 87.1336C163.16 88.03 160.781 90.258 160.514 91.2057C160.417 91.4617 160.247 91.6923 160.126 91.6924C160.005 91.6924 159.908 91.8204 159.908 91.9485C159.908 92.1021 159.714 92.6912 159.447 93.3058C158.209 96.2511 158.209 101.271 159.447 104.165C159.689 104.78 159.908 105.318 159.908 105.394C159.908 106.137 163.354 109.876 164.713 110.619C166.776 111.721 169.276 112.258 171.897 112.105C173.256 112.053 174.906 111.797 175.61 111.567C177.357 110.978 179.76 109.21 180.828 107.725C182.187 105.804 182.599 104.754 183.449 101.297C184.007 98.9916 183.522 95.406 182.284 92.7168C181.58 91.1545 179.153 88.4142 177.867 87.6971C175.974 86.6727 174.396 86.109 172.843 85.9553C171.921 85.8529 170.877 85.7249 170.465 85.6737Z" fill="#7AC943"/>
<path d="M62.9275 79.2709C63.0489 78.938 63.6314 78.8867 67.3687 78.938L71.6886 79.0148L71.8344 91.1801C71.9072 97.8647 72.1012 103.858 72.2226 104.498C72.8051 107.443 74.5524 109.928 76.7366 110.901C79.6974 112.258 82.3914 112.489 85.4735 111.669C87.8519 111.029 89.1626 110.133 90.3032 108.34C91.8322 105.907 91.9535 104.626 92.0263 90.924L92.0749 79.0148H100.326L100.399 91.4363C100.423 99.6319 100.375 104.242 100.205 105.01C100.059 105.651 99.841 106.649 99.7197 107.264C99.5983 107.879 99.3315 108.749 99.1374 109.185C98.9675 109.646 98.6761 110.389 98.5062 110.824C98.3364 111.285 98.118 111.669 97.9967 111.669C97.8753 111.669 97.7781 111.823 97.7781 111.977C97.7781 112.694 95.5211 115.229 93.7009 116.587C91.007 118.559 85.959 119.865 81.0323 119.839C78.921 119.814 75.8875 119.378 75.5475 119.02C75.4505 118.917 75.0378 118.84 74.6495 118.84C73.7273 118.84 70.2082 117.048 68.7035 115.793C66.8105 114.205 64.0438 109.902 64.0438 108.493C64.0438 108.314 63.9709 108.084 63.8739 107.981C63.1459 107.213 63.0244 105.419 62.9031 92.6656C62.8303 85.52 62.8304 79.5014 62.9275 79.2709Z" fill="#7AC943"/>
<path d="M119.621 78.5025C122.266 77.7598 123.479 77.6318 127.144 77.7087C130.081 77.7855 131.051 77.9136 132.944 78.477C135.905 79.3734 137.677 80.3465 139.376 81.9856C142.191 84.7004 143.89 88.3629 144.23 92.4607C144.303 93.3827 144.375 99.6575 144.4 106.419L144.424 118.712L140.153 118.789L135.881 118.84V107.213C135.881 94.2023 135.808 93.3826 134.352 90.1812C133.77 88.9263 132.265 87.4408 131.027 86.903C130.566 86.7237 129.911 86.4165 129.595 86.2372C129.231 86.0579 127.896 85.9298 126.076 85.9298C123.552 85.9298 122.945 86.0324 121.683 86.5446C118.504 87.902 116.708 90.2582 115.956 94.0487C115.543 96.1744 115.495 97.583 115.495 107.648V118.84L111.199 118.789L106.879 118.712L106.806 106.675C106.758 96.789 106.806 94.3303 107.098 92.9729C107.292 92.0509 107.534 90.8984 107.607 90.4118C107.923 88.7727 109.67 85.3919 111.054 83.7784C113.286 81.1661 115.98 79.5014 119.621 78.5025Z" fill="#7AC943"/>
<path d="M199.345 79.1941C199.418 78.938 200.389 78.8867 203.398 78.938L207.354 79.0148L207.427 98.9403L207.475 118.84L203.422 118.789L199.345 118.712L199.272 99.1197C199.248 88.3383 199.272 79.375 199.345 79.1941Z" fill="#7AC943"/>
<path d="M225.265 78.8354C228.177 77.811 229.609 77.6317 234.293 77.7342C237.982 77.811 238.298 77.8367 240.652 78.6819C245.967 80.5771 248.588 83.215 250.505 88.491C251.621 91.5387 251.84 95.0987 251.791 108.468L251.767 118.712H243.273L243.249 109.236C243.2 96.8147 243.054 94.0997 242.375 92.1021C241.38 89.2081 240.263 87.8762 237.691 86.5956C236.623 86.0578 236.113 86.0067 233.395 85.9811C231.551 85.9555 230.191 86.0579 229.997 86.2372C229.827 86.3909 229.415 86.5957 229.075 86.6982C227.934 87.0567 226.139 88.4398 225.289 89.618C224.852 90.2582 224.367 90.924 224.27 91.0521C224.149 91.2058 224.003 91.6155 223.906 91.9485C223.008 95.9951 223.008 96.0207 223.008 107.495V118.84H214.756V105.548C214.756 90.2326 214.732 90.4374 216.552 86.4933C218.275 82.7797 221.042 80.3465 225.265 78.8354Z" fill="#7AC943"/>
<path d="M47.128 62.3161C50.2345 61.0868 57.685 60.2418 58.4133 61.01C58.8258 61.4454 58.8258 68.2323 58.4133 68.5909C58.2432 68.7189 56.7144 68.8983 55.04 68.9495C52.2733 69.0264 51.8849 69.1032 50.5987 69.7947C48.9242 70.691 48.2445 71.485 47.8319 73.0216C47.6378 73.6362 47.3951 74.507 47.2738 74.9425C47.1524 75.3778 47.0553 76.556 47.0553 77.5549V79.3989L52.5886 79.4502L58.0978 79.527L58.1706 82.7284C58.1948 84.4956 58.1706 86.186 58.0978 86.4933L57.9765 87.0823H47.0311L47.0797 118.712H38.197L38.0514 117.048C37.7602 114.051 37.8088 77.6829 38.1 75.8389C39.1679 68.8727 42.2742 64.237 47.128 62.3161Z" fill="#7AC943"/>
<path fill-rule="evenodd" clip-rule="evenodd" d="M50.1617 1.82206C51.448 1.07933 60.4762 0.77205 63.1216 1.36111C63.874 1.54038 64.5779 1.77089 64.6749 1.87333C64.772 1.97577 65.0875 2.05266 65.3544 2.05266C65.6457 2.05269 66.6892 2.33451 67.6842 2.66743C73.5088 4.63951 77.1007 6.84208 78.484 9.32638C78.9937 10.2484 79.0908 10.7349 79.0908 12.5533C79.0908 14.6022 78.7267 16.395 78.3141 16.395C78.2171 16.3951 78.12 16.5487 78.12 16.7279C78.12 17.2914 76.1785 19.4172 74.5282 20.6722C72.5381 22.1832 68.7035 24.8211 67.0775 25.8199C66.4222 26.2297 65.3786 27.0493 64.7719 27.6127C63.704 28.5859 63.704 28.6373 64.1165 29.1239C64.5049 29.5849 65.0146 29.6362 70.4266 29.8155C73.6543 29.9179 76.785 30.097 77.3919 30.2507C77.9986 30.3787 79.1393 30.6092 79.9402 30.7629C80.7411 30.8909 81.6876 31.1728 82.0517 31.3777C82.4157 31.5569 83.0468 31.7874 83.4351 31.8899C83.8234 31.9667 84.2845 32.2227 84.4544 32.4276C84.6 32.6325 84.8426 32.7863 84.964 32.7863C85.8377 32.7863 89.8178 36.6792 91.1041 38.8049C91.8564 40.0855 91.9535 40.4185 91.9535 42.0064C91.9535 43.543 91.8806 43.8249 91.4195 44.1578C90.7158 44.6956 90.206 44.6698 89.2353 44.0808C88.046 43.3637 84.8182 42.2626 82.6098 41.8528C80.377 41.443 73.0964 41.3662 71.0577 41.7247C70.3296 41.8528 68.8248 42.1088 67.6842 42.2625C66.5435 42.4161 65.233 42.6466 64.7719 42.7747C64.3107 42.9028 63.3885 43.1333 62.709 43.2869C62.0537 43.4662 61.2285 43.6711 60.8888 43.7992C60.549 43.9016 59.7966 44.1576 59.1899 44.3369C58.5832 44.5162 58.0007 44.7212 57.8551 44.8236C57.7337 44.9005 57.1755 45.1311 56.6416 45.3103C56.1077 45.4896 55.4039 45.7457 55.0641 45.8993C54.3118 46.2323 53.4138 46.6164 52.7586 46.8725C51.9575 47.18 45.7932 50.407 44.7011 51.0729C44.1428 51.4315 42.8081 52.3023 41.716 52.9937C40.6241 53.7107 39.6291 54.2997 39.5076 54.2998C39.3863 54.2998 39.2891 54.4022 39.2891 54.5047C39.2891 54.6071 38.925 54.9145 38.5124 55.1962C37.4445 55.8366 34.314 58.2696 33.0762 59.4221C32.5423 59.9087 31.0618 61.2405 29.8241 62.3674C28.5622 63.4941 27.3247 64.6465 27.0575 64.954C25.844 66.209 23.5869 69.1801 21.9851 71.562C21.0386 72.9962 19.2183 75.6341 17.9321 77.4781C16.6458 79.2965 15.3353 81.2173 15.0198 81.7039C14.7043 82.1906 14.3645 82.6516 14.2917 82.7284C14.1946 82.8053 13.9763 83.2406 13.7821 83.7016C13.588 84.137 13.3694 84.5212 13.2723 84.5212C13.1511 84.5213 13.0782 84.6237 13.0782 84.7773C13.0782 85.0334 11.8162 88.1324 11.3794 88.9264C11.2338 89.1825 11.1367 89.4898 11.1367 89.6435C11.1367 89.7971 10.9184 90.3862 10.6757 91.0008C10.4087 91.5899 9.75333 93.5108 9.19514 95.278C8.03021 98.9404 7.37494 100.247 6.16147 101.399C5.38492 102.091 5.11791 102.193 3.83171 102.193C1.89017 102.193 1.13772 101.63 0.458183 99.6832C-0.0272031 98.3001 -0.0515198 97.9159 0.0455575 91.6924C0.118366 88.1068 0.288393 84.5724 0.434009 83.8809C0.555353 83.1638 0.798046 81.8833 0.919395 81.0382C1.065 80.1674 1.33183 78.9637 1.50172 78.349C1.69587 77.7343 1.98715 76.5561 2.15704 75.7366C2.35117 74.9171 2.56965 74.2001 2.69101 74.1231C2.78808 74.0463 2.88511 73.7899 2.88511 73.5338C2.88522 73.0727 3.49206 71.3567 4.36568 69.2312C4.63263 68.6165 4.82666 68.0787 4.82666 68.0019C4.82673 67.8224 6.18576 64.6979 7.0109 62.9564C8.46707 59.9342 13.0297 52.507 15.9178 48.486C16.209 48.1018 16.9614 47.0262 17.6166 46.1042C18.2476 45.1822 19.2184 43.8504 19.7523 43.1589C26.4992 34.2461 31.1103 29.6873 40.8666 22.1576C42.614 20.8258 44.143 19.622 44.3129 19.4684C44.4585 19.3403 45.5263 18.5975 46.6426 17.8292C49.6035 15.7802 49.7493 15.473 48.2446 14.2948C47.6621 13.8338 47.6135 13.8339 45.7205 14.6535C42.9536 15.8317 29.5814 22.9772 28.3679 23.9249C28.1737 24.0785 27.737 24.3601 27.4215 24.5394C26.5478 25.0772 25.3099 25.8199 24.3149 26.409C23.8052 26.7163 22.9073 27.2542 22.3006 27.6127C21.6938 27.9713 20.5046 28.6885 19.6309 29.2007C15.5295 31.685 13.4908 32.5046 10.0446 33.0424C7.4235 33.4522 4.99649 32.7607 3.20057 31.1215C1.84157 29.8666 1.47754 28.7653 1.91434 27.1263C2.32692 25.564 3.24919 24.7699 6.16147 23.4381C6.6954 23.182 8.78256 22.1319 10.7726 21.0818C12.787 20.0062 15.8935 18.3671 17.6894 17.4195C19.4853 16.4719 22.2763 15.0376 23.8781 14.2181C25.4798 13.4241 30.5036 10.8117 35.042 8.4555C44.3364 3.64092 45.4534 3.0772 45.9146 3.07712C46.0844 3.07712 46.3273 2.97472 46.4729 2.87227C46.7643 2.59054 48.5601 2.05266 49.2153 2.05266C49.5065 2.05265 49.919 1.9501 50.1617 1.82206ZM65.1603 12.8607C64.4808 11.5033 62.6847 10.863 61.4955 11.5801C60.7432 12.0411 60.452 12.5789 60.2579 13.7313C59.9666 15.8059 61.083 17.1634 63.0488 17.1634C64.8447 17.1633 66.0582 14.7047 65.1603 12.8607Z" fill="#7AC943"/>
<path d="M201.408 62.5722C203.01 61.8807 203.35 61.8808 204.927 62.3674C206.189 62.7772 207.306 63.6992 207.864 64.8517C208.374 65.9018 208.568 68.3861 208.204 69.5386C207.573 71.5875 205.582 72.9962 203.422 72.9706C201.505 72.9706 200.195 72.2788 199.297 70.8446C198.569 69.7178 198.496 69.436 198.496 67.6177C198.496 65.7994 198.569 65.5176 199.297 64.3908C199.903 63.3919 200.34 63.0076 201.408 62.5722Z" fill="#7AC943"/>
<path fill-rule="evenodd" clip-rule="evenodd" d="M140.978 15.5499C144.035 14.4998 145.079 14.3717 148.986 14.4742C151.34 14.551 152.433 14.7046 153.84 15.1912C154.835 15.5242 156.097 16.0108 156.631 16.267C157.553 16.7279 159.641 18.1109 159.908 18.4439C159.98 18.5208 160.49 18.9561 161.048 19.4171C162.019 20.2111 164.325 23.0541 164.907 24.181C165.854 25.9481 166.485 27.5103 166.922 29.0981C167.407 30.8397 167.431 31.5058 167.431 42.6211V54.2998H160.15V51.1497C160.126 48.3325 160.102 48.1019 159.811 48.7934C159.519 49.5105 158.646 50.5092 156.874 52.1484C156.073 52.8655 153.452 54.2998 152.869 54.2998C152.675 54.2998 152.069 54.4791 151.535 54.684C150.2 55.1706 144.763 55.1961 143.356 54.7095C142.773 54.5046 141.851 54.2742 141.293 54.1718C140.759 54.0949 140.104 53.8388 139.837 53.6595C139.594 53.4547 139.23 53.2754 138.987 53.2754C138.453 53.2751 135.298 51.0214 134.061 49.7666C133.09 48.8189 131.44 46.7188 130.857 45.72C130.226 44.6956 129.086 42.0836 129.086 41.7247C129.086 41.5199 128.989 41.238 128.867 41.11C128.382 40.5209 128.115 38.1903 128.115 34.5791C128.115 30.9167 128.163 30.5837 128.867 28.3556C129.28 27.0494 129.692 25.948 129.789 25.8712C129.862 25.7942 130.251 25.0771 130.639 24.2833C132.313 20.877 137.022 16.8817 140.978 15.5499ZM156.025 24.9235C153.403 22.3112 149.035 21.2355 144.933 22.1831C138.623 23.643 134.789 30.3276 136.221 37.3963C136.852 40.4953 137.944 42.6722 139.74 44.3882C142.215 46.7444 144.545 47.6665 148.016 47.6921C151.68 47.7177 154.496 46.4883 156.753 43.8759C158.864 41.4429 159.665 38.9074 159.665 34.6816C159.665 30.3021 158.621 27.5103 156.025 24.9235Z" fill="#303237"/>
<path fill-rule="evenodd" clip-rule="evenodd" d="M226.406 9.99218C226.406 15.4714 226.478 19.978 226.6 19.9806C226.697 19.9806 227.352 19.3658 228.056 18.5975C231.138 15.2936 236.671 13.6291 241.889 14.4487C245.602 15.0377 248.151 16.0877 250.626 18.0598C253.878 20.6465 256.694 24.6931 257.713 28.3043C257.883 28.8677 258.126 29.6105 258.247 29.969C258.611 30.9423 258.757 36.295 258.49 37.9086C258.028 40.4184 257.859 41.0588 256.767 43.543C256.136 45.0541 254.728 47.1285 253.32 48.6908C250.578 51.6874 247.399 53.6851 244.413 54.2998C243.782 54.4279 242.884 54.6584 242.423 54.812C241.331 55.145 236.72 55.145 235.628 54.812C235.167 54.6584 234.196 54.4279 233.492 54.2998C231.454 53.9412 227.935 52.3021 226.939 51.3032C226.77 51.124 226.527 50.9704 226.43 50.9703C226.163 50.9703 223.396 48.1275 222.474 46.8725C221.236 45.2334 219.974 42.7235 219.222 40.3416L218.567 38.2927L218.469 19.5196C218.397 9.17372 218.421 0.568991 218.494 0.362413C218.591 0.0806897 219.392 0.00375487 222.522 0.00375395H226.406V9.99218ZM241.525 22.1831C239.39 21.6965 238.564 21.6966 236.186 22.1576C232.449 22.9003 229.585 25.2054 227.74 29.0726L226.77 31.096V34.6816C226.77 37.9086 226.842 38.4464 227.352 39.8294C228.177 41.9295 228.469 42.4161 230.022 44.1321C232.109 46.4115 235.094 47.6409 238.662 47.6409C243.904 47.6409 248.563 44.2602 249.923 39.4452C250.092 38.805 250.335 37.9597 250.457 37.5499C250.869 36.1156 250.699 32.274 250.141 30.3532C248.903 26.153 245.675 23.0795 241.525 22.1831Z" fill="#303237"/>
<path fill-rule="evenodd" clip-rule="evenodd" d="M176.799 0.00375395C178.862 0.0037561 180.537 0.0806395 180.537 0.183083C180.537 0.311989 180.537 4.97294 180.561 10.5557L180.585 20.7234L182.284 18.9306C183.57 17.5988 184.517 16.8816 185.973 16.1389C188.982 14.6279 189.686 14.4741 194.006 14.4997C198.132 14.4997 199.636 14.8072 202.379 16.1902C206.359 18.2391 209.854 22.0551 211.674 26.3834C213.106 29.8154 213.737 35.6804 212.936 38.0366C212.742 38.6 212.572 39.3171 212.572 39.6501C212.572 40.5209 211.14 44.004 210.121 45.592C208.859 47.5896 207.184 49.4848 205.558 50.791C203.835 52.1484 200.437 53.9413 199.103 54.1718C198.569 54.2742 197.525 54.5302 196.797 54.7095C195.098 55.1705 190.924 55.1705 189.371 54.7095C188.715 54.5046 187.744 54.2742 187.211 54.1718C186.094 53.9668 181.751 51.8159 181.75 51.4571C181.75 51.329 181.604 51.2265 181.41 51.2264C180.973 51.2264 177.624 47.7176 176.702 46.309C175.489 44.4138 173.984 40.8794 173.596 38.933C173.401 37.9342 173.134 35.9109 173.013 34.5023C172.746 31.8387 172.698 1.48911 172.94 0.541492C173.062 0.0293665 173.232 0.00375395 176.799 0.00375395ZM196.045 22.1576C193.933 21.6966 192.38 21.7221 190.293 22.1831C187.016 22.9514 183.764 25.6407 182.041 29.0726C181.459 30.1995 180.779 33.3754 180.779 34.8865C180.779 36.3975 181.459 39.4452 182.163 40.9819C182.915 42.6979 185.536 45.464 187.186 46.3348C190.657 48.1275 195.487 48.1018 198.957 46.2577C201.869 44.6954 204.199 41.3659 204.927 37.6779C205.388 35.3474 205.388 34.0669 204.927 31.7363C204.393 29.0984 203.471 27.2799 201.772 25.4615C200.025 23.5919 198.472 22.6954 196.045 22.1576Z" fill="#303237"/>
<path d="M286.593 14.6022H291.909C297.199 14.6022 297.223 14.6023 297.369 15.1657C297.563 15.9342 297.563 21.1076 297.369 21.6198C297.248 21.9783 296.519 22.0295 291.909 22.0295H286.593V32.3253C286.618 43.2357 286.69 44.209 287.758 45.7713C288.559 46.9494 289.603 47.2311 292.879 47.0518C294.432 46.975 296.01 46.7956 296.374 46.6419C296.762 46.4883 297.175 46.4114 297.296 46.5139C297.563 46.6678 297.587 53.5306 297.32 53.9412C297.078 54.3253 291.18 54.5815 288.171 54.2998C285.744 54.0949 284.142 53.5315 283.414 52.6096C283.269 52.4047 283.002 52.2509 282.807 52.2509C282.225 52.2509 279.798 48.6399 279.798 47.7434C279.798 47.5385 279.701 47.1799 279.58 46.9238C278.876 45.4896 278.827 43.543 278.827 22.0295V0.00375395H286.593V14.6022Z" fill="#303237"/>
<path d="M118.286 15.5241C119.96 15.0375 125.275 14.3718 126.78 14.4487C127.241 14.4743 127.265 14.6791 127.338 17.9572L127.411 21.4405L125.639 21.6198C118.626 22.3369 116.174 23.7455 114.621 27.9969L113.942 29.841L113.82 42.0064L113.675 54.1718L109.743 54.2485L105.787 54.2998V42.288C105.787 30.9167 105.811 30.1226 106.297 27.8688C106.928 24.9492 107.899 22.7466 109.33 20.877C110.374 19.5196 112.728 17.5988 114.111 16.9585C115.325 16.3951 115.859 16.1901 116.466 16.0108C116.805 15.934 117.63 15.7034 118.286 15.5241Z" fill="#303237"/>
<path d="M271.304 54.2998H263.538V34.6303C263.538 23.7976 263.61 14.8598 263.707 14.7816C263.78 14.6791 265.528 14.6022 267.591 14.6022H271.304V54.2998Z" fill="#303237"/>
<path d="M264.63 0.49047C265.479 -0.0729656 268.319 -0.175433 269.192 0.31114C269.484 0.464808 270.066 0.951474 270.479 1.38687C271.571 2.53932 271.789 3.12843 271.789 4.92118C271.789 6.91884 271.279 7.91767 269.678 8.96772C268.804 9.55674 268.27 9.73606 267.275 9.73607C264.824 9.73607 263.149 8.4554 262.421 6.04793C262.057 4.81866 262.033 4.48567 262.324 3.53807C262.688 2.30877 263.513 1.20758 264.63 0.49047Z" fill="#303237"/>
</svg>
