<svg width="171" height="81" viewBox="0 0 171 81" fill="none" xmlns="http://www.w3.org/2000/svg">
<path d="M44.9212 14.9854H62.2189V18.2253H55.4138V36.5178H51.6593V18.2253H44.8877L44.9212 14.9854ZM61.4814 20.9253H64.666V23.9291H64.7331C64.8336 23.4903 65.0348 23.0853 65.3365 22.7141C65.6382 22.3428 65.9734 21.9378 66.3757 21.6341C66.778 21.2966 67.2473 21.0266 67.7501 20.8241C68.253 20.6216 68.7558 20.5203 69.2586 20.5203C69.6609 20.5203 69.9291 20.5203 70.0967 20.5541C70.2643 20.5541 70.3984 20.5878 70.566 20.6216V23.9291C70.3314 23.8953 70.0967 23.8616 69.8285 23.8278C69.5603 23.7941 69.3257 23.7941 69.091 23.7941C68.5211 23.7941 67.9848 23.9291 67.4484 24.1316C66.9456 24.3678 66.5098 24.7053 66.1075 25.1441C65.7388 25.6166 65.4371 26.1566 65.2024 26.8316C64.9677 27.5066 64.8672 28.2491 64.8672 29.1266V36.5515H61.4814V20.9253ZM86.2546 36.5178H82.9023V34.3578H82.8353C82.3995 35.134 81.7961 35.7753 80.958 36.2478C80.1199 36.7203 79.2819 36.9565 78.4103 36.9565C76.3654 36.9565 74.8904 36.4503 73.9853 35.4378C73.0802 34.4253 72.6109 32.8728 72.6109 30.8478V20.9591H76.0302V30.5103C76.0302 31.894 76.2984 32.839 76.8012 33.4128C77.3041 33.9865 78.0416 34.2565 78.9802 34.2565C79.7177 34.2565 80.2876 34.1553 80.7904 33.919C81.2597 33.6828 81.662 33.4128 81.9637 33.0078C82.2654 32.6365 82.4665 32.1978 82.6006 31.6578C82.7347 31.1178 82.8018 30.5778 82.8018 29.9703V20.9253H86.2211V36.5178H86.2546ZM92.054 31.5228C92.1546 32.5353 92.5233 33.2103 93.1938 33.649C93.8642 34.054 94.6352 34.2565 95.5739 34.2565C95.8756 34.2565 96.2443 34.2228 96.6466 34.189C97.0489 34.1553 97.4511 34.0203 97.7864 33.8853C98.1551 33.7503 98.4233 33.5478 98.6915 33.2778C98.9261 33.0078 99.0267 32.6703 98.9932 32.1978C98.9932 31.759 98.8256 31.3878 98.5239 31.1178C98.2222 30.814 97.8534 30.6115 97.3841 30.4428C96.9148 30.274 96.3784 30.1391 95.775 30.0041C95.1716 29.8691 94.5682 29.7341 93.9648 29.5991C93.3279 29.4641 92.7245 29.2953 92.121 29.0928C91.5176 28.8903 91.0148 28.6203 90.5455 28.2828C90.0762 27.9453 89.7074 27.5066 89.4392 26.9666C89.1375 26.4266 89.0034 25.7853 89.0034 24.9753C89.0034 24.1316 89.2046 23.4228 89.6069 22.8491C90.0091 22.2753 90.5455 21.8028 91.1489 21.4653C91.7858 21.1278 92.4898 20.8578 93.2608 20.7228C94.0318 20.5878 94.7693 20.5203 95.4733 20.5203C96.2779 20.5203 97.0489 20.6216 97.7528 20.7903C98.4903 20.9591 99.1273 21.2291 99.7307 21.6341C100.334 22.0053 100.803 22.5116 101.206 23.1191C101.608 23.7266 101.843 24.4691 101.943 25.3466H98.3563C98.1886 24.5366 97.8199 23.9628 97.25 23.6928C96.6466 23.3891 95.9761 23.2541 95.2387 23.2541C95.004 23.2541 94.7023 23.2541 94.3671 23.3216C94.0318 23.3553 93.7301 23.4566 93.4284 23.5578C93.1267 23.6591 92.8921 23.8278 92.6909 24.0303C92.4898 24.2328 92.3892 24.5028 92.3892 24.8741C92.3892 25.3128 92.5568 25.6503 92.825 25.8866C93.1267 26.1566 93.4955 26.3591 93.9648 26.5278C94.4341 26.6966 94.9705 26.8316 95.5739 26.9666C96.1773 27.1016 96.7807 27.2366 97.4176 27.3716C98.021 27.5066 98.6244 27.6753 99.2278 27.8778C99.8312 28.0803 100.368 28.3503 100.837 28.6878C101.306 29.0253 101.675 29.4641 101.977 29.9703C102.278 30.4766 102.412 31.1515 102.412 31.894C102.412 32.8053 102.211 33.5815 101.776 34.2565C101.34 34.8978 100.803 35.4378 100.133 35.809C99.4625 36.214 98.725 36.5178 97.8869 36.6865C97.0489 36.8553 96.2443 36.9565 95.4733 36.9565C94.5012 36.9565 93.596 36.8553 92.758 36.619C91.9199 36.3828 91.2159 36.0453 90.6125 35.6065C90.0091 35.134 89.5398 34.594 89.1711 33.919C88.8358 33.244 88.6347 32.434 88.6012 31.5228H92.054ZM103.318 20.9253H105.899V16.2341H109.318V20.9253H112.402V23.4903H109.318V31.8265C109.318 32.1978 109.318 32.5015 109.352 32.7715C109.385 33.0415 109.452 33.244 109.553 33.4465C109.653 33.649 109.821 33.7503 110.056 33.8515C110.29 33.9528 110.558 33.9865 110.961 33.9865C111.195 33.9865 111.43 33.9865 111.698 33.9865C111.933 33.9865 112.168 33.9528 112.436 33.8853V36.5515C112.067 36.5853 111.665 36.619 111.329 36.6865C110.961 36.7203 110.592 36.754 110.223 36.754C109.318 36.754 108.581 36.6528 108.044 36.484C107.508 36.3153 107.072 36.0453 106.77 35.7078C106.469 35.3703 106.268 34.9653 106.133 34.459C106.033 33.9528 105.966 33.379 105.932 32.7378V23.5578H103.351L103.318 20.9253ZM114.816 20.9253H118.034V23.0516H118.101C118.57 22.1403 119.241 21.4991 120.112 21.0941C120.984 20.6891 121.889 20.4866 122.895 20.4866C124.102 20.4866 125.174 20.6891 126.079 21.1278C126.985 21.5666 127.756 22.1403 128.359 22.9166C128.962 23.6928 129.398 24.5703 129.7 25.5491C130.002 26.5616 130.169 27.6416 130.169 28.7553C130.169 29.8016 130.035 30.814 129.767 31.7928C129.499 32.7715 129.096 33.649 128.56 34.3915C128.024 35.1678 127.32 35.7415 126.482 36.214C125.644 36.6865 124.672 36.889 123.498 36.889C122.995 36.889 122.493 36.8553 121.99 36.754C121.487 36.6528 121.018 36.5178 120.548 36.3153C120.079 36.1128 119.643 35.8428 119.274 35.539C118.872 35.2353 118.57 34.864 118.302 34.459H118.235V42.2553H114.816V20.9253ZM126.716 28.7216C126.716 28.0128 126.616 27.3378 126.448 26.6628C126.281 25.9878 125.979 25.4141 125.644 24.9078C125.308 24.4016 124.839 23.9966 124.303 23.6928C123.766 23.3891 123.129 23.2203 122.459 23.2203C121.018 23.2203 119.945 23.7266 119.207 24.7391C118.47 25.7516 118.135 27.0678 118.135 28.7553C118.135 29.5316 118.235 30.274 118.436 30.949C118.637 31.624 118.906 32.1978 119.308 32.6703C119.677 33.1428 120.146 33.5478 120.682 33.8178C121.219 34.1215 121.822 34.2565 122.526 34.2565C123.297 34.2565 123.968 34.0878 124.504 33.784C125.04 33.4803 125.476 33.0415 125.845 32.5353C126.18 32.029 126.448 31.4553 126.616 30.7803C126.649 30.0716 126.716 29.3966 126.716 28.7216ZM132.75 14.9854H136.17V18.2253H132.75V14.9854ZM132.75 20.9253H136.17V36.5178H132.75V20.9253ZM139.22 14.9854H142.64V36.5178H139.22V14.9854ZM153.065 36.9228C151.825 36.9228 150.719 36.7203 149.746 36.3153C148.774 35.9103 147.97 35.3365 147.299 34.6278C146.629 33.8853 146.126 33.0415 145.791 32.029C145.456 31.0165 145.254 29.9028 145.254 28.7216C145.254 27.5403 145.422 26.4266 145.791 25.4478C146.126 24.4353 146.662 23.5916 147.299 22.8491C147.936 22.1066 148.808 21.5666 149.746 21.1616C150.719 20.7566 151.825 20.5541 153.065 20.5541C154.305 20.5541 155.412 20.7566 156.384 21.1616C157.356 21.5666 158.161 22.1403 158.831 22.8491C159.501 23.5916 160.004 24.4353 160.34 25.4478C160.675 26.4603 160.876 27.5403 160.876 28.7216C160.876 29.9366 160.708 31.0165 160.34 32.029C160.004 33.0415 159.468 33.8853 158.831 34.6278C158.194 35.3703 157.323 35.9103 156.384 36.3153C155.412 36.7203 154.305 36.9228 153.065 36.9228ZM153.065 34.2228C153.836 34.2228 154.473 34.054 155.043 33.7503C155.613 33.4465 156.049 33.0078 156.417 32.5015C156.786 31.9953 157.021 31.3878 157.222 30.7465C157.39 30.1053 157.49 29.4303 157.49 28.7553C157.49 28.0803 157.39 27.4391 157.222 26.7641C157.054 26.0891 156.786 25.5153 156.417 25.0091C156.049 24.5028 155.613 24.0978 155.043 23.7603C154.473 23.4566 153.836 23.2878 153.065 23.2878C152.294 23.2878 151.657 23.4566 151.087 23.7603C150.517 24.0641 150.082 24.5028 149.713 25.0091C149.344 25.5153 149.109 26.0891 148.908 26.7641C148.741 27.4391 148.64 28.0803 148.64 28.7553C148.64 29.4303 148.741 30.1053 148.908 30.7465C149.076 31.3878 149.344 31.9953 149.713 32.5015C150.082 33.0078 150.517 33.4465 151.087 33.7503C151.657 34.054 152.328 34.2228 153.065 34.2228ZM161.882 20.9253H164.463V16.2341H167.882V20.9253H170.966V23.4903H167.882V31.8265C167.882 32.1978 167.882 32.5015 167.916 32.7715C167.949 33.0415 168.016 33.244 168.117 33.4465C168.217 33.649 168.385 33.7503 168.62 33.8515C168.854 33.9528 169.122 33.9865 169.525 33.9865C169.759 33.9865 169.994 33.9865 170.262 33.9865C170.497 33.9865 170.732 33.9528 171 33.8853V36.5515C170.631 36.5853 170.229 36.619 169.893 36.6865C169.525 36.7203 169.156 36.754 168.787 36.754C167.882 36.754 167.145 36.6528 166.608 36.484C166.072 36.3153 165.636 36.0453 165.334 35.7078C165.033 35.3703 164.832 34.9653 164.697 34.459C164.597 33.9528 164.53 33.379 164.496 32.7378V23.5578H161.915L161.882 20.9253Z" fill="#191919"/>
<path d="M40.9311 14.985H25.3096L20.4823 0L15.6215 14.985L0 14.9512L12.638 24.2324L7.81077 39.1836L20.4823 29.9361L33.1203 39.1836L28.2931 24.2324L40.9311 14.985Z" fill="#00B67A"/>
<path d="M29.3707 27.6074L28.2977 24.2324L20.4854 29.9362L29.3707 27.6074Z" fill="#005128"/>
<path d="M32.0476 48.7349H0V80.9998H32.0476V48.7349Z" fill="#00B67A"/>
<path d="M66.7459 48.7354H34.6982V81.0002H66.7459V48.7354Z" fill="#00B67A"/>
<path d="M101.474 48.7354H69.4268V81.0002H101.474V48.7354Z" fill="#00B67A"/>
<path d="M136.202 48.7354H104.154V81.0002H136.202V48.7354Z" fill="#00B67A"/>
<path d="M170.933 48.7354H138.886V81.0002H170.933V48.7354Z" fill="#DCDCE6"/>
<path d="M138.886 48.7354H170.967L170.833 81.0002H138.886V48.7354Z" fill="#00B67A"/>
<path d="M16.0269 70.4696L20.8877 69.2209L22.9326 75.5321L16.0269 70.4696ZM27.2235 62.3022H18.6417L15.9934 54.1685L13.3451 62.3022H4.79688L11.7361 67.3309L9.08777 75.4646L16.0269 70.4359L20.2843 67.3309L27.2235 62.3022Z" fill="white"/>
<path d="M50.7525 70.4696L55.6133 69.2209L57.6582 75.5321L50.7525 70.4696ZM61.9491 62.3022H53.3673L50.7525 54.1685L48.1042 62.3022H39.5225L46.4616 67.3309L43.8134 75.4646L50.7525 70.4359L55.0099 67.3309L61.9491 62.3022Z" fill="white"/>
<path d="M85.4833 70.4696L90.3441 69.2209L92.389 75.5321L85.4833 70.4696ZM96.6799 62.3022H88.0981L85.4498 54.1685L82.8015 62.3022H74.2197L81.1589 67.3309L78.5106 75.4646L85.4498 70.4359L89.7407 67.3309L96.6799 62.3022Z" fill="white"/>
<path d="M120.176 70.4696L125.037 69.2209L127.082 75.5321L120.176 70.4696ZM131.406 62.3022H122.825L120.176 54.1685L117.528 62.3022H108.946L115.885 67.3309L113.237 75.4646L120.176 70.4359L124.467 67.3309L131.406 62.3022Z" fill="white"/>
<path d="M154.91 70.4696L159.771 69.2209L161.815 75.5321L154.91 70.4696ZM166.14 62.3022H157.558L154.91 54.1685L152.261 62.3022H143.68L150.619 67.3309L147.971 75.4646L154.91 70.4359L159.201 67.3309L166.14 62.3022Z" fill="white"/>
</svg>
